<svg xmlns="http://www.w3.org/2000/svg" width="960" height="520" viewBox="0 0 960 520" role="img" aria-labelledby="title">
<title id="title">Public transport in four cities, 2025</title>
<rect width="960" height="520" rx="24" fill="#FBFAF7"/>
<text x="48" y="55" fill="#18202B" font-family="system-ui, sans-serif" font-size="26" font-weight="700">Public transport in four cities, 2025</text>
<text x="48" y="95" fill="#596577" font-family="system-ui, sans-serif" font-size="14">fare in dollars; times in minutes</text>
<rect x="45" y="130" width="170" height="62" fill="#E8EDF8" stroke="#BCC6D6"/><text x="130" y="167" text-anchor="middle" fill="#18202B" font-family="system-ui, sans-serif" font-size="13" font-weight="700"></text>
<rect x="215" y="130" width="233.33333333333334" height="62" fill="#E8EDF8" stroke="#BCC6D6"/><text x="331.6666666666667" y="167" text-anchor="middle" fill="#18202B" font-family="system-ui, sans-serif" font-size="13" font-weight="700">Standard fare ($)</text>
<rect x="448.33333333333337" y="130" width="233.33333333333334" height="62" fill="#E8EDF8" stroke="#BCC6D6"/><text x="565" y="167" text-anchor="middle" fill="#18202B" font-family="system-ui, sans-serif" font-size="13" font-weight="700">Average wait (min)</text>
<rect x="681.6666666666667" y="130" width="233.33333333333334" height="62" fill="#E8EDF8" stroke="#BCC6D6"/><text x="798.3333333333334" y="167" text-anchor="middle" fill="#18202B" font-family="system-ui, sans-serif" font-size="13" font-weight="700">Central journey (min)</text>
<rect x="45" y="192" width="170" height="62" fill="#F2F3F5" stroke="#BCC6D6"/><text x="59" y="229" fill="#18202B" font-family="system-ui, sans-serif" font-size="14" font-weight="700">Arden</text>
<rect x="215" y="192" width="233.33333333333334" height="62" fill="#FFFFFF" stroke="#BCC6D6"/><text x="331.6666666666667" y="229" text-anchor="middle" fill="#3C4655" font-family="system-ui, sans-serif" font-size="15">1.8</text>
<rect x="448.33333333333337" y="192" width="233.33333333333334" height="62" fill="#FFFFFF" stroke="#BCC6D6"/><text x="565" y="229" text-anchor="middle" fill="#3C4655" font-family="system-ui, sans-serif" font-size="15">9</text>
<rect x="681.6666666666667" y="192" width="233.33333333333334" height="62" fill="#FFFFFF" stroke="#BCC6D6"/><text x="798.3333333333334" y="229" text-anchor="middle" fill="#3C4655" font-family="system-ui, sans-serif" font-size="15">31</text>
<rect x="45" y="254" width="170" height="62" fill="#F2F3F5" stroke="#BCC6D6"/><text x="59" y="291" fill="#18202B" font-family="system-ui, sans-serif" font-size="14" font-weight="700">Bexley</text>
<rect x="215" y="254" width="233.33333333333334" height="62" fill="#FFFFFF" stroke="#BCC6D6"/><text x="331.6666666666667" y="291" text-anchor="middle" fill="#3C4655" font-family="system-ui, sans-serif" font-size="15">2.6</text>
<rect x="448.33333333333337" y="254" width="233.33333333333334" height="62" fill="#FFFFFF" stroke="#BCC6D6"/><text x="565" y="291" text-anchor="middle" fill="#3C4655" font-family="system-ui, sans-serif" font-size="15">7</text>
<rect x="681.6666666666667" y="254" width="233.33333333333334" height="62" fill="#FFFFFF" stroke="#BCC6D6"/><text x="798.3333333333334" y="291" text-anchor="middle" fill="#3C4655" font-family="system-ui, sans-serif" font-size="15">28</text>
<rect x="45" y="316" width="170" height="62" fill="#F2F3F5" stroke="#BCC6D6"/><text x="59" y="353" fill="#18202B" font-family="system-ui, sans-serif" font-size="14" font-weight="700">Corin</text>
<rect x="215" y="316" width="233.33333333333334" height="62" fill="#FFFFFF" stroke="#BCC6D6"/><text x="331.6666666666667" y="353" text-anchor="middle" fill="#3C4655" font-family="system-ui, sans-serif" font-size="15">3.2</text>
<rect x="448.33333333333337" y="316" width="233.33333333333334" height="62" fill="#FFFFFF" stroke="#BCC6D6"/><text x="565" y="353" text-anchor="middle" fill="#3C4655" font-family="system-ui, sans-serif" font-size="15">12</text>
<rect x="681.6666666666667" y="316" width="233.33333333333334" height="62" fill="#FFFFFF" stroke="#BCC6D6"/><text x="798.3333333333334" y="353" text-anchor="middle" fill="#3C4655" font-family="system-ui, sans-serif" font-size="15">35</text>
<rect x="45" y="378" width="170" height="62" fill="#F2F3F5" stroke="#BCC6D6"/><text x="59" y="415" fill="#18202B" font-family="system-ui, sans-serif" font-size="14" font-weight="700">Danton</text>
<rect x="215" y="378" width="233.33333333333334" height="62" fill="#FFFFFF" stroke="#BCC6D6"/><text x="331.6666666666667" y="415" text-anchor="middle" fill="#3C4655" font-family="system-ui, sans-serif" font-size="15">2.9</text>
<rect x="448.33333333333337" y="378" width="233.33333333333334" height="62" fill="#FFFFFF" stroke="#BCC6D6"/><text x="565" y="415" text-anchor="middle" fill="#3C4655" font-family="system-ui, sans-serif" font-size="15">6</text>
<rect x="681.6666666666667" y="378" width="233.33333333333334" height="62" fill="#FFFFFF" stroke="#BCC6D6"/><text x="798.3333333333334" y="415" text-anchor="middle" fill="#3C4655" font-family="system-ui, sans-serif" font-size="15">24</text>
</svg>
